<mxfile host="app.diagrams.net" modified="2024-05-16T15:35:27.387Z" agent="Mozilla/5.0 (Windows NT 10.0; Win64; x64) AppleWebKit/537.36 (KHTML, like Gecko) Chrome/124.0.0.0 Safari/537.36" etag="MVdWuNjZ-_P0xxwbjQ3a" version="24.4.2" type="device">
  <diagram id="C5RBs43oDa-KdzZeNtuy" name="Page-1">
    <mxGraphModel dx="1305" dy="816" grid="1" gridSize="10" guides="1" tooltips="1" connect="1" arrows="1" fold="1" page="1" pageScale="1" pageWidth="827" pageHeight="1169" math="0" shadow="0">
      <root>
        <mxCell id="WIyWlLk6GJQsqaUBKTNV-0" />
        <mxCell id="WIyWlLk6GJQsqaUBKTNV-1" parent="WIyWlLk6GJQsqaUBKTNV-0" />
        <mxCell id="JonRL8GSBAYjQAD-Z8IW-49" style="edgeStyle=orthogonalEdgeStyle;rounded=0;orthogonalLoop=1;jettySize=auto;html=1;exitX=0.5;exitY=1;exitDx=0;exitDy=0;entryX=0.5;entryY=0;entryDx=0;entryDy=0;" edge="1" parent="WIyWlLk6GJQsqaUBKTNV-1" source="WIyWlLk6GJQsqaUBKTNV-3" target="WIyWlLk6GJQsqaUBKTNV-6">
          <mxGeometry relative="1" as="geometry" />
        </mxCell>
        <mxCell id="WIyWlLk6GJQsqaUBKTNV-3" value="display_startmenu" style="rounded=1;whiteSpace=wrap;html=1;fontSize=12;glass=0;strokeWidth=1;shadow=0;" parent="WIyWlLk6GJQsqaUBKTNV-1" vertex="1">
          <mxGeometry x="355" y="160" width="120" height="40" as="geometry" />
        </mxCell>
        <mxCell id="JonRL8GSBAYjQAD-Z8IW-9" style="edgeStyle=orthogonalEdgeStyle;rounded=0;orthogonalLoop=1;jettySize=auto;html=1;exitX=0;exitY=0.5;exitDx=0;exitDy=0;entryX=1;entryY=0.5;entryDx=0;entryDy=0;" edge="1" parent="WIyWlLk6GJQsqaUBKTNV-1" source="WIyWlLk6GJQsqaUBKTNV-6" target="JonRL8GSBAYjQAD-Z8IW-5">
          <mxGeometry relative="1" as="geometry" />
        </mxCell>
        <mxCell id="JonRL8GSBAYjQAD-Z8IW-14" style="edgeStyle=orthogonalEdgeStyle;rounded=0;orthogonalLoop=1;jettySize=auto;html=1;exitX=0.5;exitY=1;exitDx=0;exitDy=0;" edge="1" parent="WIyWlLk6GJQsqaUBKTNV-1" source="WIyWlLk6GJQsqaUBKTNV-6" target="JonRL8GSBAYjQAD-Z8IW-13">
          <mxGeometry relative="1" as="geometry" />
        </mxCell>
        <mxCell id="JonRL8GSBAYjQAD-Z8IW-50" style="edgeStyle=orthogonalEdgeStyle;rounded=0;orthogonalLoop=1;jettySize=auto;html=1;exitX=1;exitY=0.5;exitDx=0;exitDy=0;" edge="1" parent="WIyWlLk6GJQsqaUBKTNV-1" source="WIyWlLk6GJQsqaUBKTNV-6" target="WIyWlLk6GJQsqaUBKTNV-7">
          <mxGeometry relative="1" as="geometry" />
        </mxCell>
        <mxCell id="WIyWlLk6GJQsqaUBKTNV-6" value="" style="rhombus;whiteSpace=wrap;html=1;shadow=0;fontFamily=Helvetica;fontSize=12;align=center;strokeWidth=1;spacing=6;spacingTop=-4;" parent="WIyWlLk6GJQsqaUBKTNV-1" vertex="1">
          <mxGeometry x="365" y="240" width="100" height="90" as="geometry" />
        </mxCell>
        <mxCell id="JonRL8GSBAYjQAD-Z8IW-8" style="edgeStyle=orthogonalEdgeStyle;rounded=0;orthogonalLoop=1;jettySize=auto;html=1;exitX=0.5;exitY=1;exitDx=0;exitDy=0;" edge="1" parent="WIyWlLk6GJQsqaUBKTNV-1" source="WIyWlLk6GJQsqaUBKTNV-7" target="JonRL8GSBAYjQAD-Z8IW-7">
          <mxGeometry relative="1" as="geometry" />
        </mxCell>
        <mxCell id="WIyWlLk6GJQsqaUBKTNV-7" value="load game" style="rounded=1;whiteSpace=wrap;html=1;fontSize=12;glass=0;strokeWidth=1;shadow=0;" parent="WIyWlLk6GJQsqaUBKTNV-1" vertex="1">
          <mxGeometry x="640" y="265" width="120" height="40" as="geometry" />
        </mxCell>
        <mxCell id="WIyWlLk6GJQsqaUBKTNV-8" value="" style="rounded=0;html=1;jettySize=auto;orthogonalLoop=1;fontSize=11;endArrow=block;endFill=0;endSize=8;strokeWidth=1;shadow=0;labelBackgroundColor=none;edgeStyle=orthogonalEdgeStyle;" parent="WIyWlLk6GJQsqaUBKTNV-1" source="WIyWlLk6GJQsqaUBKTNV-10" target="WIyWlLk6GJQsqaUBKTNV-11" edge="1">
          <mxGeometry x="0.3527" y="20" relative="1" as="geometry">
            <mxPoint as="offset" />
          </mxGeometry>
        </mxCell>
        <mxCell id="WIyWlLk6GJQsqaUBKTNV-9" value="" style="edgeStyle=orthogonalEdgeStyle;rounded=0;html=1;jettySize=auto;orthogonalLoop=1;fontSize=11;endArrow=block;endFill=0;endSize=8;strokeWidth=1;shadow=0;labelBackgroundColor=none;" parent="WIyWlLk6GJQsqaUBKTNV-1" source="WIyWlLk6GJQsqaUBKTNV-10" target="WIyWlLk6GJQsqaUBKTNV-12" edge="1">
          <mxGeometry x="-0.0196" y="-10" relative="1" as="geometry">
            <mxPoint x="-1" as="offset" />
          </mxGeometry>
        </mxCell>
        <mxCell id="WIyWlLk6GJQsqaUBKTNV-10" value="" style="rhombus;whiteSpace=wrap;html=1;shadow=0;fontFamily=Helvetica;fontSize=12;align=center;strokeWidth=1;spacing=6;spacingTop=-4;" parent="WIyWlLk6GJQsqaUBKTNV-1" vertex="1">
          <mxGeometry x="364" y="470" width="100" height="80" as="geometry" />
        </mxCell>
        <mxCell id="JonRL8GSBAYjQAD-Z8IW-36" style="edgeStyle=orthogonalEdgeStyle;rounded=0;orthogonalLoop=1;jettySize=auto;html=1;exitX=0.5;exitY=1;exitDx=0;exitDy=0;entryX=0.5;entryY=0;entryDx=0;entryDy=0;" edge="1" parent="WIyWlLk6GJQsqaUBKTNV-1" source="WIyWlLk6GJQsqaUBKTNV-11" target="JonRL8GSBAYjQAD-Z8IW-35">
          <mxGeometry relative="1" as="geometry" />
        </mxCell>
        <mxCell id="WIyWlLk6GJQsqaUBKTNV-11" value="Player VS Player" style="rounded=1;whiteSpace=wrap;html=1;fontSize=12;glass=0;strokeWidth=1;shadow=0;" parent="WIyWlLk6GJQsqaUBKTNV-1" vertex="1">
          <mxGeometry x="190" y="490" width="120" height="40" as="geometry" />
        </mxCell>
        <mxCell id="JonRL8GSBAYjQAD-Z8IW-40" style="edgeStyle=orthogonalEdgeStyle;rounded=0;orthogonalLoop=1;jettySize=auto;html=1;exitX=0.5;exitY=1;exitDx=0;exitDy=0;entryX=0.5;entryY=0;entryDx=0;entryDy=0;" edge="1" parent="WIyWlLk6GJQsqaUBKTNV-1" source="WIyWlLk6GJQsqaUBKTNV-12" target="JonRL8GSBAYjQAD-Z8IW-37">
          <mxGeometry relative="1" as="geometry" />
        </mxCell>
        <mxCell id="WIyWlLk6GJQsqaUBKTNV-12" value="Player VS Computer" style="rounded=1;whiteSpace=wrap;html=1;fontSize=12;glass=0;strokeWidth=1;shadow=0;" parent="WIyWlLk6GJQsqaUBKTNV-1" vertex="1">
          <mxGeometry x="520" y="490" width="120" height="40" as="geometry" />
        </mxCell>
        <mxCell id="JonRL8GSBAYjQAD-Z8IW-3" style="edgeStyle=orthogonalEdgeStyle;rounded=0;orthogonalLoop=1;jettySize=auto;html=1;exitX=0.5;exitY=1;exitDx=0;exitDy=0;entryX=0.5;entryY=0;entryDx=0;entryDy=0;" edge="1" parent="WIyWlLk6GJQsqaUBKTNV-1" source="JonRL8GSBAYjQAD-Z8IW-0" target="JonRL8GSBAYjQAD-Z8IW-2">
          <mxGeometry relative="1" as="geometry" />
        </mxCell>
        <mxCell id="JonRL8GSBAYjQAD-Z8IW-0" value="" style="ellipse;fillColor=strokeColor;html=1;" vertex="1" parent="WIyWlLk6GJQsqaUBKTNV-1">
          <mxGeometry x="400" y="20" width="30" height="30" as="geometry" />
        </mxCell>
        <mxCell id="JonRL8GSBAYjQAD-Z8IW-4" style="edgeStyle=orthogonalEdgeStyle;rounded=0;orthogonalLoop=1;jettySize=auto;html=1;exitX=0.5;exitY=1;exitDx=0;exitDy=0;entryX=0.5;entryY=0;entryDx=0;entryDy=0;" edge="1" parent="WIyWlLk6GJQsqaUBKTNV-1" source="JonRL8GSBAYjQAD-Z8IW-2" target="WIyWlLk6GJQsqaUBKTNV-3">
          <mxGeometry relative="1" as="geometry" />
        </mxCell>
        <mxCell id="JonRL8GSBAYjQAD-Z8IW-2" value="display_startscreen" style="rounded=1;whiteSpace=wrap;html=1;fontSize=12;glass=0;strokeWidth=1;shadow=0;" vertex="1" parent="WIyWlLk6GJQsqaUBKTNV-1">
          <mxGeometry x="355" y="80" width="120" height="40" as="geometry" />
        </mxCell>
        <mxCell id="JonRL8GSBAYjQAD-Z8IW-11" style="edgeStyle=orthogonalEdgeStyle;rounded=0;orthogonalLoop=1;jettySize=auto;html=1;exitX=0.5;exitY=1;exitDx=0;exitDy=0;" edge="1" parent="WIyWlLk6GJQsqaUBKTNV-1" source="JonRL8GSBAYjQAD-Z8IW-5" target="JonRL8GSBAYjQAD-Z8IW-10">
          <mxGeometry relative="1" as="geometry" />
        </mxCell>
        <mxCell id="JonRL8GSBAYjQAD-Z8IW-5" value="exit" style="rounded=1;whiteSpace=wrap;html=1;fontSize=12;glass=0;strokeWidth=1;shadow=0;" vertex="1" parent="WIyWlLk6GJQsqaUBKTNV-1">
          <mxGeometry x="70" y="265" width="120" height="40" as="geometry" />
        </mxCell>
        <mxCell id="JonRL8GSBAYjQAD-Z8IW-16" style="edgeStyle=orthogonalEdgeStyle;rounded=0;orthogonalLoop=1;jettySize=auto;html=1;exitX=0.5;exitY=1;exitDx=0;exitDy=0;entryX=1;entryY=0.5;entryDx=0;entryDy=0;" edge="1" parent="WIyWlLk6GJQsqaUBKTNV-1" source="JonRL8GSBAYjQAD-Z8IW-7" target="JonRL8GSBAYjQAD-Z8IW-20">
          <mxGeometry relative="1" as="geometry" />
        </mxCell>
        <mxCell id="JonRL8GSBAYjQAD-Z8IW-7" value="select game to load" style="rounded=1;whiteSpace=wrap;html=1;fontSize=12;glass=0;strokeWidth=1;shadow=0;" vertex="1" parent="WIyWlLk6GJQsqaUBKTNV-1">
          <mxGeometry x="640" y="370" width="120" height="40" as="geometry" />
        </mxCell>
        <mxCell id="JonRL8GSBAYjQAD-Z8IW-10" value="" style="ellipse;html=1;shape=endState;fillColor=strokeColor;" vertex="1" parent="WIyWlLk6GJQsqaUBKTNV-1">
          <mxGeometry x="115" y="370" width="30" height="30" as="geometry" />
        </mxCell>
        <mxCell id="JonRL8GSBAYjQAD-Z8IW-15" style="edgeStyle=orthogonalEdgeStyle;rounded=0;orthogonalLoop=1;jettySize=auto;html=1;exitX=0.5;exitY=1;exitDx=0;exitDy=0;entryX=0.5;entryY=0;entryDx=0;entryDy=0;" edge="1" parent="WIyWlLk6GJQsqaUBKTNV-1" source="JonRL8GSBAYjQAD-Z8IW-13" target="WIyWlLk6GJQsqaUBKTNV-10">
          <mxGeometry relative="1" as="geometry" />
        </mxCell>
        <mxCell id="JonRL8GSBAYjQAD-Z8IW-13" value="new game" style="rounded=1;whiteSpace=wrap;html=1;fontSize=12;glass=0;strokeWidth=1;shadow=0;" vertex="1" parent="WIyWlLk6GJQsqaUBKTNV-1">
          <mxGeometry x="355" y="380" width="120" height="40" as="geometry" />
        </mxCell>
        <mxCell id="JonRL8GSBAYjQAD-Z8IW-22" style="edgeStyle=orthogonalEdgeStyle;rounded=0;orthogonalLoop=1;jettySize=auto;html=1;exitX=0.5;exitY=1;exitDx=0;exitDy=0;entryX=0.5;entryY=0;entryDx=0;entryDy=0;" edge="1" parent="WIyWlLk6GJQsqaUBKTNV-1" source="JonRL8GSBAYjQAD-Z8IW-20" target="JonRL8GSBAYjQAD-Z8IW-21">
          <mxGeometry relative="1" as="geometry" />
        </mxCell>
        <mxCell id="JonRL8GSBAYjQAD-Z8IW-20" value="Player make move" style="rounded=1;whiteSpace=wrap;html=1;fontSize=12;glass=0;strokeWidth=1;shadow=0;" vertex="1" parent="WIyWlLk6GJQsqaUBKTNV-1">
          <mxGeometry x="355" y="740" width="120" height="40" as="geometry" />
        </mxCell>
        <mxCell id="JonRL8GSBAYjQAD-Z8IW-24" style="edgeStyle=orthogonalEdgeStyle;rounded=0;orthogonalLoop=1;jettySize=auto;html=1;exitX=0;exitY=0.5;exitDx=0;exitDy=0;entryX=0;entryY=0.5;entryDx=0;entryDy=0;" edge="1" parent="WIyWlLk6GJQsqaUBKTNV-1" source="JonRL8GSBAYjQAD-Z8IW-21" target="JonRL8GSBAYjQAD-Z8IW-20">
          <mxGeometry relative="1" as="geometry" />
        </mxCell>
        <mxCell id="JonRL8GSBAYjQAD-Z8IW-25" value="no" style="edgeLabel;html=1;align=center;verticalAlign=middle;resizable=0;points=[];" vertex="1" connectable="0" parent="JonRL8GSBAYjQAD-Z8IW-24">
          <mxGeometry x="-0.1028" y="-1" relative="1" as="geometry">
            <mxPoint as="offset" />
          </mxGeometry>
        </mxCell>
        <mxCell id="JonRL8GSBAYjQAD-Z8IW-31" style="edgeStyle=orthogonalEdgeStyle;rounded=0;orthogonalLoop=1;jettySize=auto;html=1;exitX=0.5;exitY=1;exitDx=0;exitDy=0;entryX=0.5;entryY=0;entryDx=0;entryDy=0;" edge="1" parent="WIyWlLk6GJQsqaUBKTNV-1" source="JonRL8GSBAYjQAD-Z8IW-21" target="JonRL8GSBAYjQAD-Z8IW-28">
          <mxGeometry relative="1" as="geometry" />
        </mxCell>
        <mxCell id="JonRL8GSBAYjQAD-Z8IW-21" value="valid Move?" style="rhombus;whiteSpace=wrap;html=1;shadow=0;fontFamily=Helvetica;fontSize=12;align=center;strokeWidth=1;spacing=6;spacingTop=-4;" vertex="1" parent="WIyWlLk6GJQsqaUBKTNV-1">
          <mxGeometry x="365" y="800" width="100" height="80" as="geometry" />
        </mxCell>
        <mxCell id="JonRL8GSBAYjQAD-Z8IW-47" style="edgeStyle=orthogonalEdgeStyle;rounded=0;orthogonalLoop=1;jettySize=auto;html=1;exitX=0;exitY=0.5;exitDx=0;exitDy=0;entryX=1;entryY=0.5;entryDx=0;entryDy=0;" edge="1" parent="WIyWlLk6GJQsqaUBKTNV-1" source="JonRL8GSBAYjQAD-Z8IW-26" target="JonRL8GSBAYjQAD-Z8IW-34">
          <mxGeometry relative="1" as="geometry" />
        </mxCell>
        <mxCell id="JonRL8GSBAYjQAD-Z8IW-26" value="update Board" style="rounded=1;whiteSpace=wrap;html=1;fontSize=12;glass=0;strokeWidth=1;shadow=0;" vertex="1" parent="WIyWlLk6GJQsqaUBKTNV-1">
          <mxGeometry x="355" y="1030" width="120" height="40" as="geometry" />
        </mxCell>
        <mxCell id="JonRL8GSBAYjQAD-Z8IW-52" style="edgeStyle=orthogonalEdgeStyle;rounded=0;orthogonalLoop=1;jettySize=auto;html=1;exitX=0.5;exitY=1;exitDx=0;exitDy=0;entryX=0.5;entryY=0;entryDx=0;entryDy=0;" edge="1" parent="WIyWlLk6GJQsqaUBKTNV-1" source="JonRL8GSBAYjQAD-Z8IW-28" target="JonRL8GSBAYjQAD-Z8IW-26">
          <mxGeometry relative="1" as="geometry" />
        </mxCell>
        <mxCell id="JonRL8GSBAYjQAD-Z8IW-55" style="edgeStyle=orthogonalEdgeStyle;rounded=0;orthogonalLoop=1;jettySize=auto;html=1;exitX=1;exitY=0.5;exitDx=0;exitDy=0;entryX=0;entryY=0.5;entryDx=0;entryDy=0;" edge="1" parent="WIyWlLk6GJQsqaUBKTNV-1" source="JonRL8GSBAYjQAD-Z8IW-28" target="JonRL8GSBAYjQAD-Z8IW-54">
          <mxGeometry relative="1" as="geometry" />
        </mxCell>
        <mxCell id="JonRL8GSBAYjQAD-Z8IW-28" value="board full?" style="rhombus;whiteSpace=wrap;html=1;shadow=0;fontFamily=Helvetica;fontSize=12;align=center;strokeWidth=1;spacing=6;spacingTop=-4;" vertex="1" parent="WIyWlLk6GJQsqaUBKTNV-1">
          <mxGeometry x="366" y="900" width="96" height="80" as="geometry" />
        </mxCell>
        <mxCell id="JonRL8GSBAYjQAD-Z8IW-48" style="edgeStyle=orthogonalEdgeStyle;rounded=0;orthogonalLoop=1;jettySize=auto;html=1;exitX=0.5;exitY=0;exitDx=0;exitDy=0;entryX=0;entryY=0.5;entryDx=0;entryDy=0;" edge="1" parent="WIyWlLk6GJQsqaUBKTNV-1" source="JonRL8GSBAYjQAD-Z8IW-34" target="JonRL8GSBAYjQAD-Z8IW-20">
          <mxGeometry relative="1" as="geometry" />
        </mxCell>
        <mxCell id="JonRL8GSBAYjQAD-Z8IW-34" value="switch Player" style="rounded=1;whiteSpace=wrap;html=1;fontSize=12;glass=0;strokeWidth=1;shadow=0;" vertex="1" parent="WIyWlLk6GJQsqaUBKTNV-1">
          <mxGeometry x="145" y="1030" width="120" height="40" as="geometry" />
        </mxCell>
        <mxCell id="JonRL8GSBAYjQAD-Z8IW-42" style="edgeStyle=orthogonalEdgeStyle;rounded=0;orthogonalLoop=1;jettySize=auto;html=1;exitX=0.5;exitY=1;exitDx=0;exitDy=0;entryX=0.5;entryY=0;entryDx=0;entryDy=0;" edge="1" parent="WIyWlLk6GJQsqaUBKTNV-1" source="JonRL8GSBAYjQAD-Z8IW-35" target="JonRL8GSBAYjQAD-Z8IW-38">
          <mxGeometry relative="1" as="geometry" />
        </mxCell>
        <mxCell id="JonRL8GSBAYjQAD-Z8IW-35" value="create Player 1" style="rounded=1;whiteSpace=wrap;html=1;fontSize=12;glass=0;strokeWidth=1;shadow=0;" vertex="1" parent="WIyWlLk6GJQsqaUBKTNV-1">
          <mxGeometry x="190" y="560" width="120" height="40" as="geometry" />
        </mxCell>
        <mxCell id="JonRL8GSBAYjQAD-Z8IW-41" style="edgeStyle=orthogonalEdgeStyle;rounded=0;orthogonalLoop=1;jettySize=auto;html=1;exitX=0.5;exitY=1;exitDx=0;exitDy=0;" edge="1" parent="WIyWlLk6GJQsqaUBKTNV-1" source="JonRL8GSBAYjQAD-Z8IW-37" target="JonRL8GSBAYjQAD-Z8IW-39">
          <mxGeometry relative="1" as="geometry" />
        </mxCell>
        <mxCell id="JonRL8GSBAYjQAD-Z8IW-37" value="create Player 1" style="rounded=1;whiteSpace=wrap;html=1;fontSize=12;glass=0;strokeWidth=1;shadow=0;" vertex="1" parent="WIyWlLk6GJQsqaUBKTNV-1">
          <mxGeometry x="520" y="560" width="120" height="40" as="geometry" />
        </mxCell>
        <mxCell id="JonRL8GSBAYjQAD-Z8IW-44" style="edgeStyle=orthogonalEdgeStyle;rounded=0;orthogonalLoop=1;jettySize=auto;html=1;exitX=1;exitY=0.5;exitDx=0;exitDy=0;entryX=0;entryY=0.5;entryDx=0;entryDy=0;" edge="1" parent="WIyWlLk6GJQsqaUBKTNV-1" source="JonRL8GSBAYjQAD-Z8IW-38" target="JonRL8GSBAYjQAD-Z8IW-43">
          <mxGeometry relative="1" as="geometry" />
        </mxCell>
        <mxCell id="JonRL8GSBAYjQAD-Z8IW-38" value="create Player 2" style="rounded=1;whiteSpace=wrap;html=1;fontSize=12;glass=0;strokeWidth=1;shadow=0;" vertex="1" parent="WIyWlLk6GJQsqaUBKTNV-1">
          <mxGeometry x="190" y="640" width="120" height="40" as="geometry" />
        </mxCell>
        <mxCell id="JonRL8GSBAYjQAD-Z8IW-45" style="edgeStyle=orthogonalEdgeStyle;rounded=0;orthogonalLoop=1;jettySize=auto;html=1;exitX=0;exitY=0.5;exitDx=0;exitDy=0;entryX=1;entryY=0.5;entryDx=0;entryDy=0;" edge="1" parent="WIyWlLk6GJQsqaUBKTNV-1" source="JonRL8GSBAYjQAD-Z8IW-39" target="JonRL8GSBAYjQAD-Z8IW-43">
          <mxGeometry relative="1" as="geometry" />
        </mxCell>
        <mxCell id="JonRL8GSBAYjQAD-Z8IW-39" value="Create ComputerPlayer" style="rounded=1;whiteSpace=wrap;html=1;fontSize=12;glass=0;strokeWidth=1;shadow=0;" vertex="1" parent="WIyWlLk6GJQsqaUBKTNV-1">
          <mxGeometry x="520" y="640" width="120" height="40" as="geometry" />
        </mxCell>
        <mxCell id="JonRL8GSBAYjQAD-Z8IW-46" style="edgeStyle=orthogonalEdgeStyle;rounded=0;orthogonalLoop=1;jettySize=auto;html=1;exitX=0.5;exitY=1;exitDx=0;exitDy=0;entryX=0.5;entryY=0;entryDx=0;entryDy=0;" edge="1" parent="WIyWlLk6GJQsqaUBKTNV-1" source="JonRL8GSBAYjQAD-Z8IW-43" target="JonRL8GSBAYjQAD-Z8IW-20">
          <mxGeometry relative="1" as="geometry" />
        </mxCell>
        <mxCell id="JonRL8GSBAYjQAD-Z8IW-43" value="" style="rhombus;whiteSpace=wrap;html=1;shadow=0;fontFamily=Helvetica;fontSize=12;align=center;strokeWidth=1;spacing=6;spacingTop=-4;" vertex="1" parent="WIyWlLk6GJQsqaUBKTNV-1">
          <mxGeometry x="365" y="620" width="100" height="80" as="geometry" />
        </mxCell>
        <mxCell id="JonRL8GSBAYjQAD-Z8IW-58" style="edgeStyle=orthogonalEdgeStyle;rounded=0;orthogonalLoop=1;jettySize=auto;html=1;exitX=1;exitY=0.5;exitDx=0;exitDy=0;entryX=0;entryY=0.5;entryDx=0;entryDy=0;" edge="1" parent="WIyWlLk6GJQsqaUBKTNV-1" source="JonRL8GSBAYjQAD-Z8IW-54" target="JonRL8GSBAYjQAD-Z8IW-56">
          <mxGeometry relative="1" as="geometry" />
        </mxCell>
        <mxCell id="JonRL8GSBAYjQAD-Z8IW-54" value="check win or draw" style="rounded=1;whiteSpace=wrap;html=1;fontSize=12;glass=0;strokeWidth=1;shadow=0;" vertex="1" parent="WIyWlLk6GJQsqaUBKTNV-1">
          <mxGeometry x="510" y="920" width="120" height="40" as="geometry" />
        </mxCell>
        <mxCell id="JonRL8GSBAYjQAD-Z8IW-60" style="edgeStyle=orthogonalEdgeStyle;rounded=0;orthogonalLoop=1;jettySize=auto;html=1;exitX=0.5;exitY=1;exitDx=0;exitDy=0;" edge="1" parent="WIyWlLk6GJQsqaUBKTNV-1" source="JonRL8GSBAYjQAD-Z8IW-56" target="JonRL8GSBAYjQAD-Z8IW-59">
          <mxGeometry relative="1" as="geometry" />
        </mxCell>
        <mxCell id="JonRL8GSBAYjQAD-Z8IW-56" value="display result" style="rounded=1;whiteSpace=wrap;html=1;fontSize=12;glass=0;strokeWidth=1;shadow=0;" vertex="1" parent="WIyWlLk6GJQsqaUBKTNV-1">
          <mxGeometry x="682" y="920" width="120" height="40" as="geometry" />
        </mxCell>
        <mxCell id="JonRL8GSBAYjQAD-Z8IW-61" style="edgeStyle=orthogonalEdgeStyle;rounded=0;orthogonalLoop=1;jettySize=auto;html=1;exitX=1;exitY=0.5;exitDx=0;exitDy=0;entryX=1;entryY=0.5;entryDx=0;entryDy=0;" edge="1" parent="WIyWlLk6GJQsqaUBKTNV-1" source="JonRL8GSBAYjQAD-Z8IW-59" target="JonRL8GSBAYjQAD-Z8IW-2">
          <mxGeometry relative="1" as="geometry" />
        </mxCell>
        <mxCell id="JonRL8GSBAYjQAD-Z8IW-62" value="yes" style="edgeLabel;html=1;align=center;verticalAlign=middle;resizable=0;points=[];" vertex="1" connectable="0" parent="JonRL8GSBAYjQAD-Z8IW-61">
          <mxGeometry x="-0.6304" y="3" relative="1" as="geometry">
            <mxPoint as="offset" />
          </mxGeometry>
        </mxCell>
        <mxCell id="JonRL8GSBAYjQAD-Z8IW-64" style="edgeStyle=orthogonalEdgeStyle;rounded=0;orthogonalLoop=1;jettySize=auto;html=1;exitX=0.5;exitY=1;exitDx=0;exitDy=0;entryX=0.5;entryY=0;entryDx=0;entryDy=0;" edge="1" parent="WIyWlLk6GJQsqaUBKTNV-1" source="JonRL8GSBAYjQAD-Z8IW-59" target="JonRL8GSBAYjQAD-Z8IW-63">
          <mxGeometry relative="1" as="geometry" />
        </mxCell>
        <mxCell id="JonRL8GSBAYjQAD-Z8IW-59" value="return to title?" style="rhombus;whiteSpace=wrap;html=1;shadow=0;fontFamily=Helvetica;fontSize=12;align=center;strokeWidth=1;spacing=6;spacingTop=-4;" vertex="1" parent="WIyWlLk6GJQsqaUBKTNV-1">
          <mxGeometry x="694" y="990" width="96" height="80" as="geometry" />
        </mxCell>
        <mxCell id="JonRL8GSBAYjQAD-Z8IW-63" value="" style="ellipse;html=1;shape=endState;fillColor=strokeColor;" vertex="1" parent="WIyWlLk6GJQsqaUBKTNV-1">
          <mxGeometry x="727" y="1110" width="30" height="30" as="geometry" />
        </mxCell>
      </root>
    </mxGraphModel>
  </diagram>
</mxfile>
